<?xml version="1.0" standalone="no"?>
<!DOCTYPE svg PUBLIC "-//W3C//DTD SVG 20010904//EN"
 "http://www.w3.org/TR/2001/REC-SVG-20010904/DTD/svg10.dtd">
<svg version="1.0" xmlns="http://www.w3.org/2000/svg"
 width="432.000000pt" height="432.000000pt" viewBox="0 0 432.000000 432.000000"
 preserveAspectRatio="xMidYMid meet">

<g transform="translate(0.000000,432.000000) scale(0.100000,-0.100000)"
fill="#000000" stroke="none">
<path d="M350 4103 c1 -37 329 -3685 332 -3689 8 -7 1449 -404 1468 -404 17 0
1470 398 1478 405 1 1 74 809 162 1796 88 987 162 1818 165 1847 l6 52 -1805
0 c-993 0 -1806 -3 -1806 -7z m2950 -750 c0 -5 -9 -102 -20 -218 -11 -115 -20
-216 -20 -222 0 -10 -181 -13 -870 -13 -689 0 -870 -3 -870 -12 0 -7 9 -107
20 -223 11 -115 20 -213 20 -217 0 -5 373 -8 830 -8 l829 0 -5 -47 c-3 -27
-31 -339 -63 -696 -32 -356 -61 -650 -64 -654 -4 -3 -215 -64 -469 -135 l-462
-128 -451 125 c-247 69 -459 129 -470 134 -19 8 -23 30 -48 332 -16 178 -31
339 -34 357 l-5 32 235 0 235 0 6 -52 c3 -29 11 -109 17 -178 6 -69 14 -128
17 -132 4 -3 116 -35 249 -71 l241 -64 245 66 c135 36 248 69 252 72 5 6 55
504 55 557 l0 22 -785 0 c-654 0 -785 2 -785 14 0 7 -27 309 -60 671 -33 362
-60 666 -60 676 0 18 36 19 1145 19 630 0 1145 -3 1145 -7z"/>
</g>
</svg>
